<svg width="153" height="18" viewBox="0 0 153 18" fill="none" xmlns="http://www.w3.org/2000/svg">
<path d="M12.712 14.912V17H0.52V0.199999H12.376V2.288H2.92V7.448H11.344V9.488H2.92V14.912H12.712ZM22.2141 17.192C20.9501 17.192 19.7261 17 18.5421 16.616C17.3741 16.216 16.4541 15.704 15.7821 15.08L16.6701 13.208C17.3101 13.784 18.1261 14.256 19.1181 14.624C20.1261 14.976 21.1581 15.152 22.2141 15.152C23.6061 15.152 24.6461 14.92 25.3341 14.456C26.0221 13.976 26.3661 13.344 26.3661 12.56C26.3661 11.984 26.1741 11.52 25.7901 11.168C25.4221 10.8 24.9581 10.52 24.3981 10.328C23.8541 10.136 23.0781 9.92 22.0701 9.68C20.8061 9.376 19.7821 9.072 18.9981 8.768C18.2301 8.464 17.5661 8 17.0061 7.376C16.4621 6.736 16.1901 5.88 16.1901 4.808C16.1901 3.912 16.4221 3.104 16.8861 2.384C17.3661 1.664 18.0861 1.088 19.0461 0.655999C20.0061 0.224 21.1981 0.0079999 22.6221 0.0079999C23.6141 0.0079999 24.5901 0.136 25.5501 0.391999C26.5101 0.647999 27.3341 1.016 28.0221 1.496L27.2301 3.416C26.5261 2.968 25.7741 2.632 24.9741 2.408C24.1741 2.168 23.3901 2.048 22.6221 2.048C21.2621 2.048 20.2381 2.296 19.5501 2.792C18.8781 3.288 18.5421 3.928 18.5421 4.712C18.5421 5.288 18.7341 5.76 19.1181 6.128C19.5021 6.48 19.9741 6.76 20.5341 6.968C21.1101 7.16 21.8861 7.368 22.8621 7.592C24.1261 7.896 25.1421 8.2 25.9101 8.504C26.6781 8.808 27.3341 9.272 27.8781 9.896C28.4381 10.52 28.7181 11.36 28.7181 12.416C28.7181 13.296 28.4781 14.104 27.9981 14.84C27.5181 15.56 26.7901 16.136 25.8141 16.568C24.8381 16.984 23.6381 17.192 22.2141 17.192ZM47.3924 0.199999V17H44.9924V9.512H35.3444V17H32.9444V0.199999H35.3444V7.424H44.9924V0.199999H47.3924ZM60.7249 17.192C59.0289 17.192 57.5009 16.824 56.1409 16.088C54.7809 15.336 53.7089 14.304 52.9249 12.992C52.1569 11.68 51.7729 10.216 51.7729 8.6C51.7729 6.984 52.1569 5.52 52.9249 4.208C53.7089 2.896 54.7809 1.872 56.1409 1.136C57.5009 0.384 59.0289 0.0079999 60.7249 0.0079999C62.4049 0.0079999 63.9249 0.384 65.2849 1.136C66.6449 1.872 67.7089 2.896 68.4769 4.208C69.2449 5.504 69.6289 6.968 69.6289 8.6C69.6289 10.232 69.2449 11.704 68.4769 13.016C67.7089 14.312 66.6449 15.336 65.2849 16.088C63.9249 16.824 62.4049 17.192 60.7249 17.192ZM60.7249 15.056C61.9569 15.056 63.0609 14.776 64.0369 14.216C65.0289 13.656 65.8049 12.888 66.3649 11.912C66.9409 10.92 67.2289 9.816 67.2289 8.6C67.2289 7.384 66.9409 6.288 66.3649 5.312C65.8049 4.32 65.0289 3.544 64.0369 2.984C63.0609 2.424 61.9569 2.144 60.7249 2.144C59.4929 2.144 58.3729 2.424 57.3649 2.984C56.3729 3.544 55.5889 4.32 55.0129 5.312C54.4529 6.288 54.1729 7.384 54.1729 8.6C54.1729 9.816 54.4529 10.92 55.0129 11.912C55.5889 12.888 56.3729 13.656 57.3649 14.216C58.3729 14.776 59.4929 15.056 60.7249 15.056ZM80.5692 0.199999C82.7452 0.199999 84.4572 0.719999 85.7052 1.76C86.9532 2.8 87.5772 4.232 87.5772 6.056C87.5772 7.88 86.9532 9.312 85.7052 10.352C84.4572 11.392 82.7452 11.912 80.5692 11.912H76.4172V17H74.0172V0.199999H80.5692ZM80.4972 9.824C82.0172 9.824 83.1772 9.504 83.9772 8.864C84.7772 8.208 85.1772 7.272 85.1772 6.056C85.1772 4.84 84.7772 3.912 83.9772 3.272C83.1772 2.616 82.0172 2.288 80.4972 2.288H76.4172V9.824H80.4972ZM98.3751 0.199999C100.551 0.199999 102.263 0.719999 103.511 1.76C104.759 2.8 105.383 4.232 105.383 6.056C105.383 7.88 104.759 9.312 103.511 10.352C102.263 11.392 100.551 11.912 98.3751 11.912H94.2231V17H91.8231V0.199999H98.3751ZM98.3031 9.824C99.8231 9.824 100.983 9.504 101.783 8.864C102.583 8.208 102.983 7.272 102.983 6.056C102.983 4.84 102.583 3.912 101.783 3.272C100.983 2.616 99.8231 2.288 98.3031 2.288H94.2231V9.824H98.3031ZM109.629 0.199999H112.029V17H109.629V0.199999ZM132.227 0.199999V17H130.259L120.179 4.472V17H117.779V0.199999H119.747L129.827 12.728V0.199999H132.227ZM149.615 8.504H151.919V15.056C151.087 15.744 150.119 16.272 149.015 16.64C147.911 17.008 146.759 17.192 145.559 17.192C143.863 17.192 142.335 16.824 140.975 16.088C139.615 15.336 138.543 14.312 137.759 13.016C136.991 11.704 136.607 10.232 136.607 8.6C136.607 6.968 136.991 5.496 137.759 4.184C138.543 2.872 139.615 1.848 140.975 1.112C142.351 0.375999 143.895 0.0079999 145.607 0.0079999C146.951 0.0079999 148.167 0.232 149.255 0.68C150.359 1.112 151.295 1.752 152.063 2.6L150.575 4.088C149.231 2.792 147.607 2.144 145.703 2.144C144.423 2.144 143.271 2.424 142.247 2.984C141.239 3.528 140.447 4.296 139.871 5.288C139.295 6.264 139.007 7.368 139.007 8.6C139.007 9.816 139.295 10.92 139.871 11.912C140.447 12.888 141.239 13.656 142.247 14.216C143.271 14.776 144.415 15.056 145.679 15.056C147.183 15.056 148.495 14.696 149.615 13.976V8.504Z" fill="black"/>
</svg>
